# xmcd
#
# Track frame offsets:
#	152
#	16060
#	42930
#	63917
#	76102
#	84457
#	94210
#	105927
#	116622
#	126307
#	137365
#	150540
#	168207
#
# Disc length: 2351
#
# Revision: 2
# Processed by: cddbd v1.5.1PL0 Copyright (c) Steve Scherf et al.
# Submitted via: DiscPlay 4.0.3
# Normalized: r1:TDELIM( - )
#
DISCID=8e092d0d
DTITLE=Various Artist - Daughters of Texas
DYEAR=1900
DGENRE=
TTITLE0=Lou Ann Barton - Young And Dumb
TTITLE1=Lou Ann Barton - (I Feel Like) Breaking Up Somebody's Home
TTITLE2=Keri Leigh and The Blue Devils - In The Mood
TTITLE3=Kathy and The Kilowatts - Say The Wrong Thing
TTITLE4=Diane Colbe - Rock and Roll Fever
TTITLE5=Big Martha - Horny Old Buzzard, Dirty Old Man
TTITLE6=Big Martha - Your Magic Touch (Quit Working On Me)
TTITLE7=Janis Joplin - Nobody Knows When You're Down And Out
TTITLE8=Janis Joplin - Walk Right In
TTITLE9=Jeanette Williams - I Can Tell I'm Losing You
TTITLE10=Kathy and The Kilowatts - Stepping Up In Class
TTITLE11=Diane Colbe - Breaking Mama's Rule
TTITLE12=Levenia Lewis - Ain't Nobody Gonna Take My Man
EXTD=
EXTT0=
EXTT1=
EXTT2=
EXTT3=
EXTT4=
EXTT5=
EXTT6=
EXTT7=
EXTT8=
EXTT9=
EXTT10=
EXTT11=
EXTT12=
PLAYORDER=
